HIERARCHY
ROOT Hips
{
	OFFSET 0.000000 71.427986 0.000000
	CHANNELS 6 Xposition Yposition Zposition Xrotation Yrotation Zrotation
	JOINT Pelvis
	{
		OFFSET 0.000000 0.000000 0.000000
		CHANNELS 3 Xrotation Yrotation Zrotation
		JOINT LeftUpLeg
		{
			OFFSET 6.797100 -2.508499 -1.318700
			CHANNELS 3 Xrotation Yrotation Zrotation
			JOINT LeftLeg
			{
				OFFSET 0.069008 -29.241863 0.690200
				CHANNELS 3 Xrotation Yrotation Zrotation
				JOINT LeftFoot
				{
					OFFSET -0.069008 -29.568123 -0.266800
					CHANNELS 3 Xrotation Yrotation Zrotation
					JOINT LeftToeBase
					{
						OFFSET 3.145500 -8.631000 16.059900
						CHANNELS 3 Xrotation Yrotation Zrotation
						End Site
						{
							OFFSET 0.000000 18.501587 0.000000
						}
					}
				}
			}
			JOINT Left_ShortSleeve
			{
				OFFSET 0.265923 -10.480953 1.153800
				CHANNELS 3 Xrotation Yrotation Zrotation
				End Site
				{
					OFFSET 1.725763 19.823879 0.000000
				}
			}
		}
		JOINT RightUpLeg
		{
			OFFSET -6.797100 -2.508499 -1.318700
			CHANNELS 3 Xrotation Yrotation Zrotation
			JOINT RightLeg
			{
				OFFSET -0.082453 -29.241932 0.688000
				CHANNELS 3 Xrotation Yrotation Zrotation
				JOINT RightFoot
				{
					OFFSET 0.082453 -29.568058 -0.264600
					CHANNELS 3 Xrotation Yrotation Zrotation
					JOINT RightToeBase
					{
						OFFSET -3.115300 -8.682800 16.113400
						CHANNELS 3 Xrotation Yrotation Zrotation
						End Site
						{
							OFFSET 0.000000 18.567114 0.000000
						}
					}
				}
			}
			JOINT Right_ShortSleeve
			{
				OFFSET -0.265923 -10.480953 1.153800
				CHANNELS 3 Xrotation Yrotation Zrotation
				End Site
				{
					OFFSET -1.725766 19.823910 0.000000
				}
			}
		}
	}
	JOINT Spine
	{
		OFFSET 0.000000 13.368103 0.470500
		CHANNELS 3 Xrotation Yrotation Zrotation
		JOINT Spine1
		{
			OFFSET 0.147000 13.837402 0.538800
			CHANNELS 3 Xrotation Yrotation Zrotation
			JOINT Spine2
			{
				OFFSET 0.168000 16.242897 -1.435500
				CHANNELS 3 Xrotation Yrotation Zrotation
				JOINT Neck
				{
					OFFSET 0.217200 18.631500 -1.679100
					CHANNELS 3 Xrotation Yrotation Zrotation
					JOINT Head
					{
						OFFSET 0.000000 6.599396 1.385900
						CHANNELS 3 Xrotation Yrotation Zrotation
						JOINT Hat
						{
							OFFSET -0.532200 27.220596 -10.096100
							CHANNELS 3 Xrotation Yrotation Zrotation
							End Site
							{
								OFFSET 0.000000 22.029861 0.000000
							}
						}
						JOINT HairD
						{
							OFFSET -10.777400 17.437393 -1.325900
							CHANNELS 3 Xrotation Yrotation Zrotation
							JOINT HairD1
							{
								OFFSET -3.290299 -11.051193 1.062200
								CHANNELS 3 Xrotation Yrotation Zrotation
								End Site
								{
									OFFSET 0.000000 11.579437 0.000000
								}
							}
						}
						JOINT HairB
						{
							OFFSET -10.777400 17.437393 1.467900
							CHANNELS 3 Xrotation Yrotation Zrotation
							JOINT HairB1
							{
								OFFSET -1.561200 -12.956299 3.590200
								CHANNELS 3 Xrotation Yrotation Zrotation
								End Site
								{
									OFFSET 0.000000 13.534866 0.000000
								}
							}
						}
						JOINT HairA
						{
							OFFSET 9.713100 17.437393 1.467900
							CHANNELS 3 Xrotation Yrotation Zrotation
							JOINT HairA1
							{
								OFFSET 1.561200 -12.956299 3.590200
								CHANNELS 3 Xrotation Yrotation Zrotation
								End Site
								{
									OFFSET 0.000000 13.534866 0.000000
								}
							}
						}
						JOINT HairC
						{
							OFFSET 9.713100 17.437393 -1.325900
							CHANNELS 3 Xrotation Yrotation Zrotation
							JOINT HairC1
							{
								OFFSET 3.290300 -11.051193 1.062200
								CHANNELS 3 Xrotation Yrotation Zrotation
								End Site
								{
									OFFSET 0.000000 11.579437 0.000000
								}
							}
						}
					}
				}
				JOINT LeftShoulder
				{
					OFFSET 5.101800 15.108002 -2.763700
					CHANNELS 3 Xrotation Yrotation Zrotation
					JOINT LeftArm
					{
						OFFSET 9.825497 2.506317 -1.597400
						CHANNELS 3 Xrotation Yrotation Zrotation
						JOINT LeftForeArm
						{
							OFFSET 21.966244 0.000000 0.000000
							CHANNELS 3 Xrotation Yrotation Zrotation
							JOINT LeftHand
							{
								OFFSET 33.879036 0.000000 0.000000
								CHANNELS 3 Xrotation Yrotation Zrotation
								JOINT LeftHandThumb1
								{
									OFFSET 6.715286 -2.359680 3.363841
									CHANNELS 3 Xrotation Yrotation Zrotation
									JOINT LeftHandThumb2
									{
										OFFSET 2.507072 -1.447464 1.447461
										CHANNELS 3 Xrotation Yrotation Zrotation
										JOINT LeftHandThumb3
										{
											OFFSET 2.898338 -1.673355 1.673357
											CHANNELS 3 Xrotation Yrotation Zrotation
											End Site
											{
												OFFSET -0.295959 3.727692 -0.131651
											}
										}
									}
								}
								JOINT LeftHandIndex1
								{
									OFFSET 14.190811 -0.254547 3.840278
									CHANNELS 3 Xrotation Yrotation Zrotation
									JOINT LeftHandIndex2
									{
										OFFSET 3.551727 0.000000 -0.000000
										CHANNELS 3 Xrotation Yrotation Zrotation
										JOINT LeftHandIndex3
										{
											OFFSET 2.894196 0.000000 0.000000
											CHANNELS 3 Xrotation Yrotation Zrotation
											End Site
											{
												OFFSET -1.000603 2.690872 0.366626
											}
										}
									}
								}
								JOINT LeftHandMiddle1
								{
									OFFSET 13.776489 0.000000 0.000000
									CHANNELS 3 Xrotation Yrotation Zrotation
									JOINT LeftHandMiddle2
									{
										OFFSET 3.438232 0.000000 0.000000
										CHANNELS 3 Xrotation Yrotation Zrotation
										JOINT LeftHandMiddle3
										{
											OFFSET 3.691551 0.000000 0.000000
											CHANNELS 3 Xrotation Yrotation Zrotation
											End Site
											{
												OFFSET -1.082298 3.499527 0.457670
											}
										}
									}
								}
								JOINT LeftHandRing1
								{
									OFFSET 13.966164 -0.268127 -3.067488
									CHANNELS 3 Xrotation Yrotation Zrotation
									JOINT LeftHandRing2
									{
										OFFSET 3.162567 0.000000 0.000000
										CHANNELS 3 Xrotation Yrotation Zrotation
										JOINT LeftHandRing3
										{
											OFFSET 3.324348 0.000000 0.000000
											CHANNELS 3 Xrotation Yrotation Zrotation
											End Site
											{
												OFFSET -0.861900 3.184998 0.405154
											}
										}
									}
								}
								JOINT LeftHandPinky1
								{
									OFFSET 13.131393 -0.168503 -5.746925
									CHANNELS 3 Xrotation Yrotation Zrotation
									JOINT LeftHandPinky2
									{
										OFFSET 2.849182 0.000000 0.000000
										CHANNELS 3 Xrotation Yrotation Zrotation
										JOINT LeftHandPinky3
										{
											OFFSET 2.805038 0.000000 0.000000
											CHANNELS 3 Xrotation Yrotation Zrotation
											End Site
											{
												OFFSET -0.882500 2.642609 0.325652
											}
										}
									}
								}
							}
							JOINT Left_Sleeve
							{
								OFFSET 6.592125 -0.646545 0.805568
								CHANNELS 3 Xrotation Yrotation Zrotation
								End Site
								{
									OFFSET -0.000179 20.275787 -0.000000
								}
							}
						}
					}
				}
				JOINT RightShoulder
				{
					OFFSET -5.731700 15.108002 -2.763700
					CHANNELS 3 Xrotation Yrotation Zrotation
					JOINT RightArm
					{
						OFFSET -9.825497 2.506317 -1.597400
						CHANNELS 3 Xrotation Yrotation Zrotation
						JOINT RightForeArm
						{
							OFFSET -21.966242 0.000000 0.000000
							CHANNELS 3 Xrotation Yrotation Zrotation
							JOINT RightHand
							{
								OFFSET -33.879032 0.000000 0.000000
								CHANNELS 3 Xrotation Yrotation Zrotation
								JOINT RightHandThumb1
								{
									OFFSET -6.715286 -2.359680 3.363841
									CHANNELS 3 Xrotation Yrotation Zrotation
									JOINT RightHandThumb2
									{
										OFFSET -2.507072 -1.447464 1.447461
										CHANNELS 3 Xrotation Yrotation Zrotation
										JOINT RightHandThumb3
										{
											OFFSET -2.898338 -1.673355 1.673357
											CHANNELS 3 Xrotation Yrotation Zrotation
											End Site
											{
												OFFSET 0.295959 3.727692 -0.131651
											}
										}
									}
								}
								JOINT RightHandIndex1
								{
									OFFSET -14.190811 -0.254547 3.840278
									CHANNELS 3 Xrotation Yrotation Zrotation
									JOINT RightHandIndex2
									{
										OFFSET -3.551727 0.000000 -0.000000
										CHANNELS 3 Xrotation Yrotation Zrotation
										JOINT RightHandIndex3
										{
											OFFSET -2.894196 0.000000 0.000000
											CHANNELS 3 Xrotation Yrotation Zrotation
											End Site
											{
												OFFSET 1.000603 2.690872 0.366626
											}
										}
									}
								}
								JOINT RightHandMiddle1
								{
									OFFSET -13.776489 0.000000 0.000000
									CHANNELS 3 Xrotation Yrotation Zrotation
									JOINT RightHandMiddle2
									{
										OFFSET -3.438232 0.000000 0.000000
										CHANNELS 3 Xrotation Yrotation Zrotation
										JOINT RightHandMiddle3
										{
											OFFSET -3.691551 0.000000 0.000000
											CHANNELS 3 Xrotation Yrotation Zrotation
											End Site
											{
												OFFSET 1.082298 3.499527 0.457670
											}
										}
									}
								}
								JOINT RightHandRing1
								{
									OFFSET -13.966164 -0.268127 -3.067488
									CHANNELS 3 Xrotation Yrotation Zrotation
									JOINT RightHandRing2
									{
										OFFSET -3.162567 0.000000 0.000000
										CHANNELS 3 Xrotation Yrotation Zrotation
										JOINT RightHandRing3
										{
											OFFSET -3.324348 0.000000 0.000000
											CHANNELS 3 Xrotation Yrotation Zrotation
											End Site
											{
												OFFSET 0.861900 3.184998 0.405154
											}
										}
									}
								}
								JOINT RightHandPinky1
								{
									OFFSET -13.131393 -0.168503 -5.746925
									CHANNELS 3 Xrotation Yrotation Zrotation
									JOINT RightHandPinky2
									{
										OFFSET -2.849182 0.000000 0.000000
										CHANNELS 3 Xrotation Yrotation Zrotation
										JOINT RightHandPinky3
										{
											OFFSET -2.805038 0.000000 0.000000
											CHANNELS 3 Xrotation Yrotation Zrotation
											End Site
											{
												OFFSET 0.882500 2.642609 0.325652
											}
										}
									}
								}
							}
							JOINT Right_Sleeve
							{
								OFFSET -6.592125 -0.646545 0.805568
								CHANNELS 3 Xrotation Yrotation Zrotation
								End Site
								{
									OFFSET 0.000179 20.275787 -0.000000
								}
							}
						}
					}
				}
				JOINT Bind_Right_JacketString
				{
					OFFSET -3.534800 11.969597 7.200700
					CHANNELS 3 Xrotation Yrotation Zrotation
					JOINT Bind_Right_JacketString1
					{
						OFFSET -0.319900 -6.102600 2.794100
						CHANNELS 3 Xrotation Yrotation Zrotation
						End Site
						{
							OFFSET 0.000000 6.719452 0.000000
						}
					}
				}
				JOINT Bind_Left_JacketString
				{
					OFFSET 2.904800 11.969597 7.200700
					CHANNELS 3 Xrotation Yrotation Zrotation
					JOINT Bind_Left_JacketString1
					{
						OFFSET 0.364800 -5.904503 3.186800
						CHANNELS 3 Xrotation Yrotation Zrotation
						End Site
						{
							OFFSET 0.000000 6.719513 0.000000
						}
					}
				}
				JOINT HairE
				{
					OFFSET 5.915200 17.612701 -11.592200
					CHANNELS 3 Xrotation Yrotation Zrotation
					JOINT HairE1
					{
						OFFSET 0.289200 -7.171898 -1.284500
						CHANNELS 3 Xrotation Yrotation Zrotation
						End Site
						{
							OFFSET 0.000000 7.291756 0.000000
						}
					}
				}
				JOINT HairF
				{
					OFFSET -0.864800 17.612701 -11.592200
					CHANNELS 3 Xrotation Yrotation Zrotation
					JOINT HairF1
					{
						OFFSET 0.000000 -14.087097 -2.127501
						CHANNELS 3 Xrotation Yrotation Zrotation
						End Site
						{
							OFFSET 0.000000 14.246841 0.000000
						}
					}
				}
				JOINT HairG
				{
					OFFSET -8.087700 17.612701 -11.592200
					CHANNELS 3 Xrotation Yrotation Zrotation
					JOINT HairG1
					{
						OFFSET -0.293600 -6.081398 -0.910100
						CHANNELS 3 Xrotation Yrotation Zrotation
						End Site
						{
							OFFSET 0.000000 6.156120 0.000000
						}
					}
				}
			}
		}
	}
	JOINT Pouch
	{
		OFFSET 0.000000 4.394501 10.847300
		CHANNELS 3 Xrotation Yrotation Zrotation
		End Site
		{
			OFFSET 0.000000 21.880577 0.000000
		}
	}
	JOINT Bag
	{
		OFFSET -13.229000 4.813004 -0.593300
		CHANNELS 3 Xrotation Yrotation Zrotation
		End Site
		{
			OFFSET 0.000000 21.880577 0.000000
		}
	}
	JOINT OccupyGuyFacialAnim_Joint
	{
		OFFSET 1.000000 -70.206398 -1.655000
		CHANNELS 3 Xrotation Yrotation Zrotation
		End Site
		{
			OFFSET 0.000000 21.880577 0.000000
		}
	}
}
MOTION
Frames: 4
Frame Time: 0.033333
-0.491859 60.475189 0.362421 15.498927 -53.410283 11.690100 -0.000001 -0.000001 -0.000000 -65.794488 26.170872 42.725538 46.228879 -14.792308 4.343961 0.675745 0.434188 -10.010198 0.000000 0.000000 -0.000000 0.000001 0.000000 0.000001 -33.703715 -20.425428 -35.295303 42.279701 -0.668094 -5.461392 -13.823147 -5.329826 30.446087 -0.000000 -0.000000 -0.000000 -0.000001 -0.000000 -0.000001 7.407058 3.457068 -3.075127 1.204744 1.420676 2.325058 0.205486 1.298840 1.049730 -1.849111 9.789263 -1.570596 -3.710343 23.673091 -4.987622 0.000000 0.000001 -0.000000 0.000000 0.000001 -0.000000 0.000000 0.000001 -0.000000 0.000000 0.000001 -0.000000 0.000000 0.000001 -0.000000 0.000000 0.000001 -0.000000 0.000000 0.000001 -0.000000 0.000000 0.000001 -0.000000 0.000000 0.000001 -0.000000 -2.416915 -9.914487 -4.105217 -4.668986 -14.995286 -46.826933 -96.668070 -58.172817 -94.771716 0.027020 -0.377059 -3.261901 4.766481 -0.870669 -14.442455 15.732338 12.674831 8.828580 -0.000000 -0.000001 0.000000 -3.610967 -7.817583 -81.262688 0.005153 -4.388530 -67.459033 0.000001 0.000000 -0.000000 -5.483672 2.419549 -86.651010 -0.066828 -4.897363 -76.605387 0.000000 0.000001 -0.000003 -4.480827 3.914133 -90.412519 -1.097262 -0.675693 -62.310737 -0.000002 -0.000001 -0.000004 -8.868644 8.263638 -85.753865 -0.047915 -0.066877 -74.105633 -0.000002 -0.000002 0.000003 -0.000000 0.000000 -0.000001 -7.387817 -19.317435 2.804091 3.089106 2.300705 51.805117 -16.213851 73.879397 16.738430 -2.716619 27.655234 10.524476 24.918337 -21.323378 30.343044 9.041910 8.262102 -18.001804 0.000001 -0.000001 0.000003 -0.070696 -3.035212 61.424192 0.006459 4.395143 66.609186 -0.000002 -0.000000 0.000002 -1.235405 -0.119473 68.274277 -0.077291 4.902839 84.501891 -0.000001 -0.000001 -0.000001 0.883161 -4.613428 79.192943 -0.717779 1.136484 73.255773 0.000002 -0.000000 -0.000001 -3.944535 0.099995 86.764781 -0.029776 0.060146 54.415144 -0.000001 0.000001 0.000001 -0.000000 -0.000001 0.000001 -0.000001 -0.000000 0.000000 0.000000 0.000000 0.000001 -0.000001 -0.000000 -0.000001 -0.000001 -0.000000 -0.000001 -0.000001 -0.000000 0.000000 0.000000 0.000000 0.000001 -0.000001 -0.000000 -0.000001 -0.000001 -0.000000 -0.000001 -0.000001 -0.000000 0.000000 0.000000 0.000000 0.000001 -0.000001 -0.000001 -0.000000 -0.000001 -0.000001 -0.000000 -0.000001 -0.000001 -0.000000 
-0.456875 60.528229 0.342831 15.330588 -53.219171 11.399069 -0.000000 -0.000000 -0.000000 -65.805430 26.185557 42.718496 45.998397 -15.010210 4.307610 0.856613 0.407453 -9.882394 -0.000000 -0.000000 0.000000 0.000003 0.000000 -0.000000 -33.432161 -20.666117 -35.123169 41.985842 -0.845231 -5.451685 -13.677036 -5.292057 30.466557 0.000000 0.000000 -0.000000 -0.000001 0.000001 -0.000002 7.373228 3.417620 -2.875050 1.199740 1.402337 2.350727 0.200195 1.279749 1.075435 -1.837862 9.605646 -1.650112 -4.018282 23.029477 -4.766593 0.000001 -0.000001 0.000000 0.000001 -0.000001 0.000000 0.000001 -0.000001 0.000000 0.000001 -0.000001 0.000000 -0.000000 -0.000001 0.000000 0.000001 -0.000001 0.000000 -0.000000 -0.000001 0.000000 0.000001 -0.000001 0.000000 0.000001 -0.000001 0.000000 -2.328632 -9.135096 -5.004211 -5.936164 -13.791079 -47.372146 -88.895342 -61.763768 -86.049004 -0.062218 -2.448042 -3.128591 4.766481 -0.870664 -14.442459 15.732333 12.674830 8.828579 0.000003 0.000001 0.000001 -3.610967 -7.817583 -81.262681 0.005154 -4.388531 -67.459040 0.000001 0.000001 0.000002 -5.483674 2.419549 -86.651010 -0.066828 -4.897363 -76.605387 -0.000000 0.000001 0.000001 -4.480826 3.914133 -90.412519 -1.097261 -0.675693 -62.310723 -0.000001 -0.000001 -0.000003 -8.868643 8.263641 -85.753865 -0.047914 -0.066877 -74.105640 0.000000 -0.000002 -0.000001 0.000000 0.000000 0.000002 -6.223306 -17.495705 4.472786 2.589198 1.738407 50.774749 -11.875049 72.879560 12.362595 -1.913556 27.257004 7.987434 24.918338 -21.323378 30.343037 9.041909 8.262102 -18.001799 -0.000001 -0.000006 -0.000002 -0.070696 -3.035210 61.424199 0.006461 4.395148 66.609186 0.000001 0.000000 -0.000003 -1.235405 -0.119469 68.274277 -0.077290 4.902837 84.501885 0.000001 -0.000001 0.000001 0.883160 -4.613428 79.192943 -0.717777 1.136488 73.255780 -0.000001 -0.000000 -0.000001 -3.944534 0.099994 86.764781 -0.029779 0.060146 54.415151 -0.000003 0.000001 0.000001 0.000002 0.000001 -0.000002 -0.000000 0.000000 0.000001 0.000001 -0.000000 -0.000000 -0.000000 0.000000 0.000001 -0.000000 0.000000 0.000001 -0.000000 0.000000 0.000001 0.000001 -0.000000 -0.000000 -0.000000 0.000000 0.000001 -0.000000 0.000000 0.000001 -0.000000 0.000000 0.000001 0.000001 -0.000000 -0.000000 -0.000000 -0.000000 -0.000000 -0.000000 -0.000000 -0.000000 -0.000000 -0.000000 -0.000000 
-0.425373 60.677322 0.381433 15.153854 -52.998826 11.040594 -0.000000 0.000004 -0.000000 -65.657249 26.318879 42.655389 45.485740 -15.265485 4.250761 1.092251 0.374399 -9.731149 0.000000 -0.000002 0.000000 -0.000003 0.000001 0.000001 -32.842316 -21.139309 -34.829573 41.070228 -1.071764 -5.403139 -13.246734 -5.172632 30.493103 0.000000 0.000000 -0.000000 0.000001 -0.000001 0.000001 7.258489 3.451069 -2.606121 1.176643 1.401205 2.395940 0.177420 1.277150 1.120999 -1.811686 9.031714 -1.803899 -4.715293 21.179937 -4.513465 0.000001 -0.000000 -0.000000 0.000001 -0.000000 -0.000000 0.000001 -0.000000 -0.000000 0.000001 -0.000000 -0.000000 0.000001 -0.000000 -0.000000 0.000001 -0.000000 -0.000000 0.000001 -0.000000 -0.000000 0.000001 -0.000000 -0.000000 0.000001 -0.000000 -0.000000 -2.204796 -8.264233 -6.032054 -7.302684 -12.302612 -47.902408 -77.705061 -64.889393 -74.081386 -0.149959 -4.694890 -3.005553 4.766484 -0.870667 -14.442452 15.732335 12.674832 8.828579 0.000001 -0.000000 0.000001 -3.610967 -7.817583 -81.262674 0.005152 -4.388531 -67.459033 0.000001 0.000000 -0.000000 -5.483671 2.419549 -86.651010 -0.066828 -4.897363 -76.605380 0.000001 0.000000 0.000004 -4.480824 3.914134 -90.412519 -1.097262 -0.675693 -62.310737 -0.000000 0.000001 0.000000 -8.868643 8.263641 -85.753865 -0.047913 -0.066877 -74.105633 -0.000000 0.000001 0.000001 0.000000 0.000001 -0.000001 -5.169245 -15.653801 6.035721 2.079274 1.171355 49.700042 -7.942192 71.731384 8.417949 -1.138701 26.921870 5.393068 24.918345 -21.323383 30.343040 9.041907 8.262112 -18.001799 0.000001 -0.000001 0.000002 -0.070690 -3.035212 61.424199 0.006461 4.395148 66.609180 0.000002 0.000001 -0.000003 -1.235402 -0.119470 68.274277 -0.077294 4.902840 84.501891 0.000002 -0.000000 0.000001 0.883166 -4.613429 79.192943 -0.717775 1.136486 73.255780 -0.000001 0.000000 -0.000002 -3.944535 0.099997 86.764781 -0.029774 0.060151 54.415144 0.000000 0.000002 -0.000001 -0.000000 -0.000003 0.000003 -0.000000 0.000001 -0.000001 -0.000001 -0.000001 0.000000 -0.000000 0.000001 -0.000001 -0.000000 0.000001 -0.000001 -0.000000 0.000001 -0.000001 -0.000001 -0.000001 0.000000 -0.000000 0.000001 -0.000001 -0.000000 0.000001 -0.000001 -0.000000 0.000001 -0.000001 -0.000001 -0.000001 0.000000 -0.000000 0.000004 -0.000000 -0.000000 0.000004 -0.000000 -0.000000 0.000004 -0.000000 
-0.415166 60.989723 0.509327 14.842797 -52.727042 10.456754 0.000000 -0.000000 0.000000 -65.202386 26.673171 42.556767 44.466820 -15.657876 4.144157 1.445575 0.328009 -9.532581 0.000000 -0.000000 0.000000 0.000001 -0.000000 -0.000000 -31.609491 -22.049078 -34.305605 39.077039 -1.370845 -5.275159 -12.344267 -4.912480 30.504458 -0.000000 -0.000000 -0.000000 -0.000002 -0.000001 -0.000000 7.012489 3.578119 -2.258683 1.120850 1.422840 2.475957 0.122413 1.295880 1.201915 -1.778518 7.875838 -1.936330 -5.547195 17.681300 -4.548309 -0.000000 -0.000000 -0.000000 -0.000000 -0.000000 -0.000000 -0.000000 -0.000000 -0.000000 -0.000000 -0.000000 -0.000000 -0.000000 -0.000002 0.000000 -0.000000 -0.000000 -0.000000 -0.000000 -0.000002 0.000000 -0.000000 -0.000000 -0.000000 -0.000000 -0.000000 -0.000000 -2.042287 -7.343781 -7.144769 -8.786595 -10.714946 -48.470950 -61.983885 -66.605280 -57.880703 -0.237326 -7.357877 -2.870630 4.766481 -0.870668 -14.442461 15.732338 12.674832 8.828581 0.000001 0.000001 0.000000 -3.610967 -7.817581 -81.262681 0.005152 -4.388533 -67.459033 0.000002 0.000000 0.000002 -5.483672 2.419550 -86.651010 -0.066827 -4.897363 -76.605387 -0.000001 0.000000 -0.000001 -4.480824 3.914134 -90.412519 -1.097261 -0.675694 -62.310723 -0.000001 0.000000 0.000001 -8.868640 8.263643 -85.753865 -0.047912 -0.066877 -74.105640 -0.000001 0.000003 -0.000004 -0.000001 0.000001 -0.000000 -4.213885 -13.778033 7.512505 1.553962 0.609644 48.602530 -4.484335 70.514969 4.972578 -0.394491 26.580637 2.792236 24.918342 -21.323378 30.343040 9.041909 8.262097 -18.001797 0.000001 -0.000002 0.000002 -0.070692 -3.035207 61.424199 0.006460 4.395144 66.609180 0.000000 0.000000 -0.000003 -1.235402 -0.119472 68.274277 -0.077293 4.902839 84.501885 0.000001 -0.000001 0.000001 0.883164 -4.613427 79.192949 -0.717776 1.136484 73.255780 0.000002 -0.000000 -0.000002 -3.944535 0.099999 86.764781 -0.029777 0.060146 54.415144 -0.000002 0.000004 -0.000002 0.000000 0.000001 0.000001 -0.000000 0.000003 -0.000001 -0.000001 -0.000001 -0.000001 -0.000000 0.000003 -0.000000 -0.000000 0.000003 -0.000000 -0.000000 0.000003 -0.000001 -0.000001 -0.000001 -0.000001 -0.000000 0.000003 -0.000000 -0.000000 0.000003 -0.000000 -0.000000 0.000003 -0.000001 -0.000001 -0.000001 -0.000001 0.000000 -0.000000 0.000000 0.000000 -0.000000 0.000000 0.000000 -0.000000 0.000000 
